<svg 
 xmlns="http://www.w3.org/2000/svg"
 xmlns:xlink="http://www.w3.org/1999/xlink"
 width="1.058cm" height="1.341cm">
<path fill-rule="evenodd"  fill="rgb(255, 255, 255)"
 d="M15.494,37.776 L14.973,38.000 L14.461,37.756 C4.730,33.105 -0.000,28.234 -0.000,22.863 L-0.000,5.345 L1.250,5.345 C5.460,5.345 9.843,3.740 14.274,0.573 L15.076,-0.000 L15.820,0.647 C18.648,3.108 23.045,4.691 28.890,5.353 L30.000,5.479 L30.000,22.863 C30.000,28.620 25.120,33.637 15.494,37.776 ZM27.500,7.701 C22.155,6.970 17.939,5.444 14.941,3.157 C10.765,5.982 6.589,7.543 2.500,7.808 L2.500,22.863 C2.500,27.026 6.714,31.193 15.026,35.251 C23.305,31.597 27.500,27.430 27.500,22.863 L27.500,7.701 ZM15.750,24.386 C15.273,24.968 14.561,25.305 13.809,25.306 C13.116,25.306 12.430,25.019 11.938,24.462 L7.180,19.073 C6.884,18.738 6.789,18.270 6.931,17.846 C7.073,17.422 7.430,17.106 7.868,17.017 C8.306,16.928 8.758,17.080 9.054,17.415 L13.811,22.804 L21.530,13.315 C21.966,12.779 22.753,12.698 23.289,13.135 C23.824,13.571 23.905,14.359 23.469,14.895 L15.750,24.386 Z"/>
</svg>