<svg 
 xmlns="http://www.w3.org/2000/svg"
 xmlns:xlink="http://www.w3.org/1999/xlink"
 width="24px" height="24px">
<path fill-rule="evenodd"  opacity="0" fill="rgb(0, 0, 0)"
 d="M-0.000,-0.000 L24.000,-0.000 L24.000,24.000 L-0.000,24.000 L-0.000,-0.000 Z"/>
<path fill-rule="evenodd"  fill="rgb(124, 124, 124)"
 d="M20.885,22.394 C20.737,22.610 20.498,22.727 20.252,22.727 C20.109,22.727 19.964,22.687 19.835,22.601 C19.488,22.371 19.392,21.902 19.624,21.555 C20.203,20.684 20.407,19.641 20.201,18.614 C19.994,17.590 19.399,16.706 18.530,16.127 C16.741,14.941 14.203,15.490 12.984,17.327 C12.755,17.674 12.286,17.770 11.939,17.538 C11.592,17.309 11.496,16.840 11.728,16.493 C12.134,15.884 12.651,15.366 13.268,14.955 C13.863,14.559 14.519,14.280 15.220,14.128 C15.928,13.973 16.641,13.955 17.339,14.074 C18.073,14.198 18.755,14.468 19.366,14.873 C20.573,15.675 21.396,16.898 21.684,18.319 C21.970,19.739 21.687,21.185 20.885,22.394 ZM7.130,9.459 C6.712,9.459 6.375,9.122 6.375,8.705 C6.375,8.288 6.712,7.950 7.130,7.950 C8.904,7.950 10.350,6.506 10.350,4.730 C10.350,2.953 8.904,1.509 7.130,1.509 C5.409,1.509 4.179,2.745 3.916,4.732 C3.862,5.145 3.483,5.435 3.070,5.381 C2.658,5.327 2.367,4.948 2.421,4.535 C2.592,3.237 3.105,2.126 3.902,1.317 C4.751,0.455 5.869,-0.000 7.130,-0.000 C9.738,-0.000 11.859,2.121 11.859,4.730 C11.859,7.336 9.738,9.459 7.130,9.459 Z"/>
<path fill-rule="evenodd"  fill="rgb(124, 124, 124)"
 d="M17.316,24.000 C17.290,24.000 17.264,23.998 17.236,23.995 C16.066,23.873 14.909,23.630 13.791,23.266 C12.663,22.903 11.576,22.418 10.554,21.827 C8.421,20.594 6.621,18.938 5.201,16.903 C3.888,15.023 2.995,12.926 2.545,10.666 C2.123,8.543 2.102,6.342 2.482,4.125 C2.552,3.715 2.944,3.438 3.354,3.509 C3.764,3.579 4.041,3.970 3.970,4.380 C3.248,8.583 4.123,12.724 6.438,16.038 C8.981,19.678 12.973,22.031 17.393,22.491 C17.808,22.533 18.108,22.905 18.066,23.320 C18.023,23.712 17.698,24.000 17.316,24.000 L17.316,24.000 Z"/>
<path fill-rule="evenodd"  fill="rgb(124, 124, 124)"
 d="M12.354,17.665 C12.232,17.665 12.110,17.637 11.995,17.573 C8.742,15.816 6.591,12.434 6.375,8.747 C6.352,8.330 6.668,7.973 7.085,7.950 C7.502,7.927 7.859,8.243 7.882,8.660 C8.065,11.829 9.916,14.735 12.712,16.247 C13.078,16.446 13.216,16.903 13.017,17.269 C12.881,17.522 12.621,17.665 12.354,17.665 Z"/>
</svg>