<svg 
 xmlns="http://www.w3.org/2000/svg"
 xmlns:xlink="http://www.w3.org/1999/xlink"
 width="1.27cm" height="1.27cm">
<path fill-rule="evenodd"  fill="rgb(255, 255, 255)"
 d="M35.475,34.375 C35.425,35.000 34.875,35.500 34.250,35.500 C33.550,35.500 33.000,34.925 33.000,34.250 C32.325,26.525 25.875,20.500 18.000,20.500 C10.125,20.500 3.650,26.525 3.000,34.250 C3.000,34.925 2.450,35.500 1.750,35.500 C1.125,35.500 0.575,35.000 0.525,34.375 C0.500,34.200 0.525,34.100 0.525,33.975 C1.125,26.875 5.975,21.000 12.550,18.875 C9.800,17.100 7.975,14.025 7.975,10.500 C7.975,4.975 12.450,0.500 18.000,0.500 C23.525,0.500 28.025,4.975 28.025,10.500 C28.025,14.025 26.200,17.100 23.450,18.875 C30.025,21.000 34.875,26.875 35.475,33.975 C35.475,34.100 35.500,34.200 35.475,34.375 ZM25.525,10.500 C25.525,6.350 22.150,3.000 18.000,3.000 C13.850,3.000 10.475,6.350 10.475,10.500 C10.475,14.650 13.850,18.000 18.000,18.000 C22.150,18.000 25.525,14.650 25.525,10.500 Z"/>
</svg>