<svg 
 xmlns="http://www.w3.org/2000/svg"
 xmlns:xlink="http://www.w3.org/1999/xlink"
 width="60px" height="60px">
<defs>
<linearGradient id="PSgrad_0" x1="0%" x2="72.537%" y1="0%" y2="68.835%">
  <stop offset="0%" stop-color="rgb(50,216,222)" stop-opacity="1" />
  <stop offset="100%" stop-color="rgb(86,197,255)" stop-opacity="1" />
</linearGradient>

</defs>
<path fill-rule="evenodd"  fill="url(#PSgrad_0)"
 d="M30.000,0.000 C46.569,0.000 60.000,13.431 60.000,30.000 C60.000,46.569 46.569,60.000 30.000,60.000 C13.431,60.000 -0.000,46.569 -0.000,30.000 C-0.000,13.431 13.431,0.000 30.000,0.000 Z"/>
<path fill-rule="evenodd"  opacity="0" fill="rgb(0, 0, 0)"
 d="M14.000,14.000 L46.000,14.000 L46.000,46.000 L14.000,46.000 L14.000,14.000 Z"/>
<path fill-rule="evenodd"  fill="rgb(255, 255, 255)"
 d="M42.169,37.187 C41.541,38.212 40.775,39.091 39.897,39.806 C39.841,39.850 39.816,39.872 39.794,39.894 C39.684,40.003 39.369,40.003 39.250,40.003 C38.934,40.003 38.516,39.841 38.397,39.600 C38.112,39.034 38.216,38.447 38.650,38.141 L38.653,38.137 C38.803,38.075 39.012,37.912 39.281,37.653 C39.559,37.381 39.981,36.916 40.409,36.228 C41.125,35.081 41.981,33.116 41.981,30.272 C41.981,27.425 41.075,25.459 40.316,24.309 C39.862,23.625 39.419,23.156 39.125,22.884 C38.934,22.706 38.666,22.481 38.475,22.403 L38.472,22.400 C38.069,22.109 37.928,21.409 38.191,20.987 L38.194,20.984 C38.491,20.697 38.844,20.531 39.166,20.531 C39.337,20.531 39.497,20.578 39.637,20.666 C39.659,20.684 39.687,20.706 39.728,20.741 L39.731,20.744 C40.650,21.466 41.450,22.353 42.103,23.375 C43.359,25.344 43.997,27.662 43.997,30.269 C43.997,32.887 43.381,35.212 42.169,37.187 ZM31.006,41.769 C30.675,42.019 30.334,42.019 30.159,42.019 C29.775,42.019 29.309,41.766 29.047,41.519 L22.775,36.344 L17.831,36.344 C17.362,36.344 16.850,36.137 16.531,35.816 C16.212,35.497 16.003,34.984 16.003,34.516 L16.003,25.431 C16.003,25.025 16.150,24.622 16.384,24.375 L16.656,24.087 L16.781,24.087 C17.084,23.884 17.472,23.762 17.831,23.762 L22.769,23.762 L29.044,18.428 C29.347,18.137 29.750,17.978 30.184,17.978 C30.437,17.978 30.687,18.031 30.912,18.134 C31.272,18.262 31.547,18.469 31.728,18.750 C31.903,19.019 31.991,19.347 31.991,19.750 L31.991,40.187 C31.991,40.591 31.906,40.919 31.728,41.187 C31.562,41.444 31.319,41.637 31.006,41.769 ZM30.137,19.928 L23.447,25.616 L17.853,25.616 L17.853,34.494 L23.437,34.494 L23.437,34.491 L23.694,34.703 L30.137,40.019 L30.137,19.928 Z"/>
<path fill-rule="evenodd"  fill="rgb(255, 255, 255)"
 d="M37.522,25.772 C36.778,24.916 36.009,24.516 35.844,24.456 L35.794,24.456 L35.734,24.416 C35.634,24.347 35.503,24.312 35.359,24.312 C34.987,24.312 34.581,24.550 34.491,24.825 L34.481,24.856 L34.462,24.884 C34.344,25.066 34.328,25.328 34.419,25.594 C34.509,25.856 34.687,26.066 34.875,26.128 L34.894,26.134 L34.912,26.144 C34.934,26.156 35.450,26.441 35.962,27.072 C36.434,27.650 36.997,28.644 36.997,30.094 C36.997,33.112 35.297,34.109 35.100,34.216 C34.669,34.509 34.381,35.087 34.644,35.478 L34.653,35.491 L34.659,35.506 C34.794,35.778 35.250,36.087 35.512,36.087 C35.684,36.087 35.775,36.084 35.878,35.969 L35.947,35.900 L36.022,35.900 C36.216,35.828 36.919,35.412 37.603,34.519 C38.247,33.678 39.012,32.194 39.012,29.912 C39.012,27.906 38.203,26.553 37.522,25.772 L37.522,25.772 Z"/>
</svg>