<svg width="549.3165354330708" height="144" xmlns="http://www.w3.org/2000/svg">

 <g>
  <title>background</title>
  <rect fill="none" id="canvas_background" height="146" width="551.316535" y="-1" x="-1"/>
 </g>
 <g>
  <title>Layer 1</title>
  <path id="svg_1" d="m80,20.112l139.51,0l0,107.888l-139.51,0l0,-107.888z" fill="rgb(0, 0, 0)" fill-opacity="0" fill-rule="evenodd"/>
  <path id="svg_2" d="m206.724,99.47c-10.502,12.399 -26.183,21.607 -44.151,25.924c-7.012,1.686 -14.127,2.561 -21.144,2.605c-0.215,0 -0.427,0.002 -0.642,0c-14.108,-0.012 -27.159,-3.343 -37.741,-9.633c-11.419,-6.786 -18.964,-16.406 -21.818,-27.823c-3.52,-14.073 0.584,-28.953 11.558,-41.9c10.504,-12.4 26.185,-21.606 44.151,-25.923c7.016,-1.686 14.129,-2.563 21.146,-2.607c0.215,-0.002 0.427,-0.002 0.64,-0.002c14.11,0.014 27.16,3.345 37.742,9.636c11.415,6.785 18.961,16.404 21.818,27.823c3.516,14.07 -0.585,28.951 -11.559,41.9zm10.62,-41.699c-2.771,-11.053 -10.117,-20.377 -21.245,-26.962c-10.399,-6.154 -23.245,-9.406 -37.147,-9.406c-0.211,0 -0.423,0.002 -0.634,0.002c-6.931,0.05 -13.96,0.921 -20.893,2.588c-17.736,4.264 -33.203,13.327 -43.549,25.517c-10.713,12.614 -14.727,27.071 -11.309,40.701c2.772,11.053 10.119,20.376 21.252,26.962c10.398,6.153 23.244,9.406 37.144,9.406c0.209,0 0.424,0 0.635,-0.003c6.931,-0.048 13.959,-0.919 20.89,-2.584c17.737,-4.268 33.203,-13.332 43.552,-25.518c10.712,-12.617 14.727,-27.072 11.304,-40.703z" fill="rgb(254, 254, 254)" fill-rule="evenodd"/>
  <path id="svg_3" d="m205.865,98.5c-10.128,11.915 -25.29,20.78 -42.694,24.96c-6.806,1.635 -13.711,2.49 -20.513,2.538c-13.859,0.096 -26.639,-3.075 -36.955,-9.173c-10.776,-6.367 -17.885,-15.359 -20.56,-26.003c-3.301,-13.137 0.603,-27.103 10.993,-39.322c10.129,-11.915 25.292,-20.78 42.693,-24.96c6.809,-1.636 13.712,-2.489 20.516,-2.538c13.858,-0.098 26.636,3.074 36.955,9.171c10.774,6.368 17.884,15.361 20.557,26.005c3.301,13.139 -0.603,27.103 -10.992,39.322zm9.387,-38.837c-2.51,-10.333 -9.226,-19.101 -19.417,-25.361c-9.816,-6.024 -21.989,-9.21 -35.204,-9.21c-6.502,0 -13.099,0.79 -19.61,2.346c-16.624,3.974 -31.108,12.545 -40.784,24.132c-9.864,11.811 -13.59,25.342 -10.486,38.099c2.51,10.336 9.225,19.104 19.417,25.36c9.816,6.024 21.991,9.211 35.206,9.211c6.497,0 13.096,-0.788 19.607,-2.345c16.622,-3.973 31.109,-12.546 40.785,-24.131c9.864,-11.811 13.588,-25.342 10.486,-38.101z" fill="rgb(254, 254, 254)" fill-rule="evenodd"/>
  <path id="svg_4" d="m80,128l412,0l0,-108l-412,0l0,108z" fill="rgb(0, 0, 0)" fill-opacity="0" fill-rule="evenodd"/>
  <path id="svg_5" d="m144,70l10,0l0,-2l-10,0l0,2z" fill="rgb(254, 254, 254)" fill-rule="evenodd"/>
  <path id="svg_6" d="m144,64l10,0l0,-2l-10,0l0,2z" fill="rgb(254, 254, 254)" fill-rule="evenodd"/>
  <path id="svg_7" d="m108.804,66l0.888,0c0.4,-0.655 1.327,-2.281 2.086,-3.611l0.222,-0.389l-6,0c0.917,1.207 2.344,3.269 2.804,4" fill="rgb(254, 254, 254)" fill-rule="evenodd"/>
  <path id="svg_8" d="m144,76l10,0l0,-2l-10,0l0,2z" fill="rgb(254, 254, 254)" fill-rule="evenodd"/>
  <path id="svg_9" d="m180,68l0.004,6l17.996,0l-0.001,-6l-17.999,0z" fill="rgb(254, 254, 254)" fill-rule="evenodd"/>
  <path id="svg_10" d="m202.926,96.008c-9.42,11.369 -23.566,19.783 -39.831,23.689c-6.383,1.531 -12.847,2.307 -19.214,2.303c-12.89,-0.01 -24.744,-3.13 -34.28,-9.026c-9.758,-6.029 -16.183,-14.446 -18.584,-24.331c-2.966,-12.231 0.604,-25.247 10.057,-36.654c9.421,-11.368 23.566,-19.782 39.83,-23.688c6.382,-1.531 12.848,-2.307 19.217,-2.301c12.888,0.005 24.742,3.128 34.277,9.022c9.758,6.032 16.182,14.447 18.582,24.335c2.971,12.23 -0.6,25.244 -10.054,36.651zm-0.187,-8.427c1.575,0 2.857,-1.284 2.857,-2.862c0,-1.578 -1.282,-2.862 -2.857,-2.862c-1.579,0 -2.861,1.284 -2.861,2.862c0,1.578 1.282,2.862 2.861,2.862zm-8.878,0c1.576,0 2.86,-1.284 2.86,-2.862c0,-1.578 -1.284,-2.862 -2.86,-2.862c-1.579,0 -2.862,1.284 -2.862,2.862c0,1.578 1.283,2.862 2.862,2.862zm-8.878,0c1.577,0 2.86,-1.284 2.86,-2.862c0,-1.578 -1.283,-2.862 -2.86,-2.862c-1.576,0 -2.86,1.284 -2.86,2.862c0,1.578 1.284,2.862 2.86,2.862zm-7.784,13.197l4.987,0l0,-1.063l-3.737,0l0,-1.742l3.356,0l0,-1.069l-3.356,0l0,-1.598l3.59,0l0,-1.069l-4.84,0l0,6.541zm-10.541,0l1.253,0l0,-6.539l-1.253,0l0,6.539zm-5.091,0l1.391,0l2.31,-6.541l-1.294,0c-0.197,0.615 -0.397,1.228 -0.595,1.834c-0.2,0.608 -0.398,1.217 -0.594,1.83l-0.523,1.717l-0.512,-1.717c-0.202,-0.613 -0.403,-1.222 -0.597,-1.83c-0.195,-0.606 -0.394,-1.219 -0.595,-1.834l-1.301,0l2.31,6.541zm-0.175,-16.059c0,-1.578 -1.284,-2.862 -2.86,-2.862c-1.577,0 -2.861,1.284 -2.861,2.862c0,1.578 1.284,2.862 2.861,2.862c1.576,0 2.86,-1.284 2.86,-2.862zm-8.642,16.059l1.253,0l0,-2.587l1.216,0c0.151,0 0.291,0.024 0.416,0.068c0.126,0.044 0.241,0.111 0.346,0.193c0.104,0.084 0.194,0.187 0.272,0.306c0.076,0.118 0.141,0.249 0.194,0.392l0.574,1.628l1.344,0l-0.649,-1.727c-0.129,-0.332 -0.277,-0.599 -0.442,-0.804c-0.165,-0.204 -0.374,-0.348 -0.625,-0.432l0,-0.016c0.446,-0.102 0.789,-0.296 1.035,-0.581c0.245,-0.286 0.367,-0.658 0.367,-1.12c0,-0.432 -0.106,-0.799 -0.315,-1.111c-0.104,-0.156 -0.225,-0.282 -0.362,-0.378c-0.138,-0.097 -0.295,-0.171 -0.47,-0.227c-0.172,-0.055 -0.365,-0.093 -0.573,-0.113c-0.206,-0.022 -0.434,-0.032 -0.676,-0.032l-2.905,0l0,6.541zm-0.238,-16.059c0,-1.578 -1.282,-2.862 -2.86,-2.862c-1.577,0 -2.858,1.284 -2.858,2.862c0,1.578 1.281,2.862 2.858,2.862c1.578,0 2.86,-1.284 2.86,-2.862zm-6.448,16.059l4.987,0l0,-1.063l-3.735,0l0,-1.742l3.352,0l0,-1.069l-3.352,0l0,-1.598l3.588,0l0,-1.069l-4.84,0l0,6.541zm-6.382,-0.468c0.485,0.385 1.179,0.578 2.087,0.578c0.38,0 0.729,-0.046 1.049,-0.137c0.319,-0.091 0.595,-0.224 0.828,-0.399c0.233,-0.173 0.418,-0.384 0.55,-0.634c0.13,-0.247 0.197,-0.528 0.197,-0.84c0,-0.245 -0.033,-0.458 -0.099,-0.641c-0.066,-0.181 -0.158,-0.34 -0.275,-0.473c-0.119,-0.134 -0.26,-0.248 -0.425,-0.341c-0.168,-0.093 -0.347,-0.175 -0.545,-0.247c-0.195,-0.071 -0.404,-0.133 -0.625,-0.183c-0.221,-0.053 -0.447,-0.103 -0.678,-0.155c-0.251,-0.054 -0.465,-0.109 -0.637,-0.165c-0.175,-0.054 -0.318,-0.113 -0.428,-0.176c-0.113,-0.063 -0.193,-0.135 -0.242,-0.22c-0.051,-0.084 -0.076,-0.185 -0.076,-0.305c0,-0.125 0.03,-0.238 0.087,-0.338c0.059,-0.101 0.144,-0.187 0.253,-0.257c0.107,-0.075 0.24,-0.131 0.4,-0.171c0.158,-0.04 0.337,-0.061 0.542,-0.061c0.851,0 1.311,0.334 1.376,1.002l1.217,0c-0.016,-0.32 -0.088,-0.603 -0.216,-0.854c-0.129,-0.251 -0.308,-0.462 -0.535,-0.634c-0.227,-0.174 -0.499,-0.307 -0.82,-0.398c-0.317,-0.09 -0.673,-0.134 -1.062,-0.134c-0.358,0 -0.683,0.042 -0.978,0.128c-0.295,0.085 -0.549,0.203 -0.763,0.354c-0.214,0.153 -0.383,0.334 -0.509,0.545c-0.123,0.211 -0.195,0.444 -0.215,0.697c-0.005,0.079 -0.006,0.153 -0.002,0.225c0.004,0.073 0.014,0.145 0.022,0.215c0.036,0.276 0.12,0.501 0.253,0.68c0.13,0.174 0.307,0.325 0.524,0.45c0.22,0.122 0.479,0.229 0.772,0.314c0.295,0.084 0.62,0.171 0.978,0.253c0.244,0.062 0.459,0.12 0.643,0.177c0.183,0.055 0.335,0.122 0.455,0.192c0.123,0.072 0.212,0.158 0.274,0.249c0.063,0.095 0.093,0.206 0.093,0.335c0,0.144 -0.033,0.275 -0.099,0.389c-0.066,0.115 -0.161,0.212 -0.283,0.29c-0.121,0.078 -0.272,0.14 -0.448,0.182c-0.175,0.042 -0.37,0.061 -0.587,0.061c-0.221,0 -0.428,-0.024 -0.621,-0.076c-0.19,-0.053 -0.359,-0.129 -0.504,-0.232c-0.144,-0.102 -0.262,-0.232 -0.351,-0.388c-0.089,-0.154 -0.141,-0.335 -0.161,-0.546l-1.204,0c0.043,0.74 0.306,1.301 0.788,1.689zm-11.393,-1.424c0.145,0.418 0.356,0.774 0.63,1.07c0.274,0.297 0.604,0.526 0.994,0.689c0.386,0.163 0.82,0.243 1.297,0.243c0.478,0 0.91,-0.08 1.295,-0.243c0.386,-0.163 0.714,-0.394 0.984,-0.691c0.271,-0.298 0.48,-0.654 0.625,-1.07c0.144,-0.411 0.217,-0.873 0.217,-1.375c0,-0.508 -0.075,-0.97 -0.223,-1.387c-0.149,-0.416 -0.359,-0.772 -0.63,-1.065c-0.273,-0.295 -0.6,-0.525 -0.983,-0.688c-0.385,-0.162 -0.813,-0.242 -1.285,-0.242c-0.477,0 -0.908,0.08 -1.295,0.242c-0.388,0.163 -0.718,0.393 -0.99,0.688c-0.276,0.293 -0.485,0.649 -0.634,1.065c-0.148,0.417 -0.222,0.879 -0.222,1.387c0,0.502 0.074,0.964 0.22,1.377zm-6.626,-3.566l1.971,0l0,5.458l1.253,0l0,-5.458l1.989,0l0,-1.083l-5.213,0l0,1.083zm-12.962,5.458l0.57,-1.672l2.44,0l0.595,1.672l1.313,0l-2.453,-6.541l-1.368,0l-2.348,6.541l1.251,0zm-4.102,-13.197c1.579,0 2.862,-1.284 2.862,-2.862c0,-1.578 -1.283,-2.862 -2.862,-2.862c-1.575,0 -2.859,1.284 -2.859,2.862c0,1.578 1.284,2.862 2.859,2.862zm15.249,-15.583l-6.678,0l0,-2.483l6.678,0l0,-3.829l-3.729,0c0.556,-0.875 1.262,-2.09 1.897,-3.188c0.265,-0.456 0.515,-0.888 0.733,-1.258l1.099,0l0,-3.829l-6.111,0l-0.791,-2.479l-4.78,0l0.201,0.509c0.115,0.299 0.248,0.687 0.4,1.196l0.259,0.774l-6.848,0l0,3.829l1.082,0c0.619,0.903 2.096,3.17 2.832,4.296c0.032,0.051 0.068,0.102 0.1,0.15l-4.014,0l0,3.829l6.745,0l0,2.483l-6.745,0l0,3.829l6.745,0l0,11.754l4.247,0l0,-11.754l6.678,0l0,-3.829zm-2.862,9.859c-1.575,0 -2.859,1.284 -2.859,2.862c0,1.578 1.284,2.862 2.859,2.862c1.58,0 2.862,-1.284 2.862,-2.862c0,-1.578 -1.282,-2.862 -2.862,-2.862zm3.219,12.38l-1.252,0l0,3.77c0,0.346 -0.027,0.632 -0.08,0.861c-0.052,0.229 -0.136,0.412 -0.25,0.55c-0.115,0.139 -0.262,0.238 -0.438,0.297c-0.176,0.057 -0.389,0.087 -0.638,0.087c-0.261,0 -0.48,-0.032 -0.662,-0.095c-0.181,-0.063 -0.327,-0.163 -0.438,-0.306c-0.109,-0.143 -0.191,-0.328 -0.24,-0.557c-0.051,-0.229 -0.076,-0.506 -0.076,-0.837l0,-3.77l-1.25,0l0,3.785c0,0.261 0.011,0.512 0.036,0.757c0.024,0.244 0.07,0.471 0.136,0.684c0.068,0.213 0.164,0.406 0.286,0.581c0.122,0.173 0.284,0.323 0.482,0.45c0.196,0.128 0.436,0.225 0.719,0.295c0.283,0.065 0.617,0.099 1.007,0.099c0.405,0 0.755,-0.038 1.044,-0.116c0.291,-0.081 0.533,-0.188 0.727,-0.325c0.194,-0.131 0.35,-0.293 0.468,-0.477c0.117,-0.183 0.209,-0.383 0.272,-0.594c0.062,-0.213 0.101,-0.433 0.12,-0.665c0.017,-0.229 0.027,-0.46 0.027,-0.689l0,-3.785zm14.487,-28.575l-9.639,0l0,-5.176c0.54,-0.076 1.272,-0.153 2.188,-0.229c2.936,-0.301 5.334,-0.579 7.131,-0.822l0.32,-0.044l0,-4.138l-0.422,0.061c-4.548,0.652 -8.96,1.072 -13.11,1.257l-0.357,0.015l0,30.995l4.25,0l0,-17.81l3.946,0l0,17.81l4.106,0l0,-17.81l1.587,0l0,-4.109zm6.084,21.919c1.575,0 2.86,-1.284 2.86,-2.862c0,-1.578 -1.285,-2.862 -2.86,-2.862c-1.578,0 -2.86,1.284 -2.86,2.862c0,1.578 1.282,2.862 2.86,2.862zm28.915,-11.656l-10.875,0l0,-2.2l10.875,0l0,-3.551l-10.875,0l0,-2.202l10.875,0l0,-3.547l-10.875,0l0,-2.204l10.875,0l0,-3.548l-9.772,0c-0.439,-0.746 -1.466,-2.488 -2.103,-3.559l-0.108,-0.182l-5.055,0l2.08,3.741l-7.269,0c0.581,-1.005 1.109,-2.089 1.574,-3.228l0.21,-0.513l-4.897,0l-0.099,0.22c-1.579,3.529 -3.554,6.56 -5.872,9.011l-0.102,0.106l0,6.082l0.635,-0.637c0.856,-0.858 1.686,-1.721 2.481,-2.569l0,13.449l4.247,0l0,-1.118l24.05,0l0,-3.551zm-2.284,5.932c-1.576,0 -2.858,1.284 -2.858,2.862c0,1.578 1.282,2.862 2.858,2.862c1.579,0 2.862,-1.284 2.862,-2.862c0,-1.578 -1.283,-2.862 -2.862,-2.862zm4.068,12.497c-0.378,0.15 -0.706,0.38 -0.987,0.687c-0.546,0.611 -0.821,1.435 -0.821,2.468c0,0.523 0.07,0.989 0.203,1.401c0.135,0.411 0.341,0.768 0.618,1.075c0.275,0.302 0.601,0.529 0.983,0.68c0.379,0.149 0.801,0.223 1.266,0.223c0.388,0 0.738,-0.048 1.05,-0.143c0.31,-0.098 0.592,-0.249 0.847,-0.456c0.251,-0.203 0.447,-0.448 0.588,-0.74c0.139,-0.289 0.23,-0.62 0.272,-0.994l-1.251,0c-0.051,0.412 -0.207,0.727 -0.471,0.945c-0.263,0.216 -0.61,0.325 -1.045,0.325c-0.27,0 -0.517,-0.051 -0.736,-0.151c-0.219,-0.102 -0.405,-0.252 -0.556,-0.448c-0.155,-0.196 -0.274,-0.439 -0.356,-0.728c-0.085,-0.287 -0.127,-0.617 -0.127,-0.989c0,-0.373 0.045,-0.704 0.129,-0.993c0.086,-0.289 0.206,-0.531 0.362,-0.727c0.156,-0.197 0.346,-0.346 0.567,-0.447c0.218,-0.102 0.465,-0.152 0.73,-0.152c0.212,0 0.406,0.025 0.579,0.082c0.175,0.054 0.325,0.133 0.455,0.238c0.129,0.102 0.234,0.228 0.312,0.375c0.079,0.148 0.131,0.315 0.157,0.498l1.262,0c-0.04,-0.357 -0.131,-0.677 -0.277,-0.956c-0.143,-0.282 -0.366,-0.531 -0.665,-0.75c-0.253,-0.191 -0.527,-0.329 -0.826,-0.418c-0.3,-0.088 -0.635,-0.132 -1,-0.132c-0.465,0 -0.885,0.076 -1.262,0.227zm1.772,-9.635c0,1.578 1.282,2.862 2.858,2.862c1.577,0 2.861,-1.284 2.861,-2.862c0,-1.578 -1.284,-2.862 -2.861,-2.862c-1.576,0 -2.858,1.284 -2.858,2.862zm18.369,-29.787l-4.529,0l0,9.493l-11.285,0l0.002,15.091l27.096,0l-0.004,-15.091l-11.28,0l0,-9.493zm10.671,-1.423l-1.543,-7.349l-1.545,7.349l-7.346,1.544l7.346,1.546l1.545,7.351l1.543,-7.351l7.346,-1.546l-7.346,-1.544z" fill="rgb(254, 254, 254)" fill-rule="evenodd"/>
  <path id="svg_11" d="m131.476,96.84c-0.169,-0.262 -0.377,-0.471 -0.622,-0.619c-0.243,-0.148 -0.521,-0.221 -0.837,-0.221c-0.312,0 -0.594,0.073 -0.842,0.218c-0.25,0.147 -0.461,0.352 -0.638,0.617c-0.172,0.265 -0.306,0.581 -0.398,0.947c-0.092,0.369 -0.139,0.776 -0.139,1.221c0,0.439 0.047,0.84 0.139,1.209c0.092,0.368 0.226,0.682 0.398,0.947c0.177,0.265 0.387,0.472 0.631,0.62c0.245,0.148 0.523,0.221 0.829,0.221c0.314,0 0.594,-0.073 0.843,-0.221c0.244,-0.148 0.456,-0.355 0.629,-0.62c0.172,-0.265 0.303,-0.579 0.394,-0.947c0.091,-0.369 0.137,-0.77 0.137,-1.209c0,-0.443 -0.046,-0.846 -0.135,-1.213c-0.088,-0.367 -0.218,-0.684 -0.389,-0.95" fill="rgb(254, 254, 254)" fill-rule="evenodd"/>
  <path id="svg_12" d="m108,100l2,0l-1.018,-4l-0.982,4z" fill="rgb(254, 254, 254)" fill-rule="evenodd"/>
  <path id="svg_13" d="m158,96.98c0,-0.334 -0.139,-0.583 -0.413,-0.742c-0.277,-0.16 -0.693,-0.238 -1.252,-0.238l-2.335,0l0,2l2.192,0c0.32,0 0.594,-0.021 0.82,-0.058c0.227,-0.039 0.415,-0.098 0.558,-0.18c0.15,-0.081 0.255,-0.187 0.326,-0.315c0.07,-0.13 0.104,-0.285 0.104,-0.467" fill="rgb(254, 254, 254)" fill-rule="evenodd"/>
  <path id="svg_14" d="m456.175,58.706l0,30.414c-0.067,1.65 -0.631,3.154 -1.771,4.587c-1.304,1.583 -3.016,2.293 -5.1,2.293l-19.851,0l-1.356,-8.82l13.97,0c0.931,0 1.578,-0.277 1.931,-0.716c0.361,-0.428 0.571,-1.066 0.571,-1.795l0,-25.963l-26.514,0l0,-9.398l45.945,0l0,9.398l-7.825,0zm-35.326,-29.765l41.719,0l0,9.396l-41.719,0l0,-9.396zm-17.057,16.066l-6.303,0l-1.649,-9.399l2.019,0c2.078,0 3.576,-0.646 4.22,-2.013l2.442,-5.595l11.604,0l-4.87,11.912c-1.507,3.514 -4.16,5.095 -7.463,5.095zm-43.061,46.055l-6.669,-11.48l-7.949,12.762c-1.508,2.434 -4.306,3.372 -7.53,3.372l-15.266,0l-1.718,-9.4l12.252,0c1.44,0 2.585,-0.28 3.085,-1l10.749,-16.928l-23.149,-40.098l13.046,0l16.979,29.264l7.678,-11.972l-4.733,0c-3.444,0 -5.53,-2.075 -6.662,-5.959l-3.014,-11.044l11.037,0l2.01,7.029c0.355,1.074 0.999,1.723 2.22,1.723l2.141,0l0,3.447l8.035,-12.488l12.966,0l-25.362,40.393l9.664,16.486c0.573,0.934 1.729,1.147 2.875,1.147l16.049,0l0,9.4l-20.783,0c-3.299,0 -6.087,-1.436 -7.951,-4.654zm-72.603,1.578l-0.142,0.132c-2.651,2.006 -5.657,2.944 -8.892,2.944l-15.983,0l-0.49,-2.865c-1.221,2.149 -3.16,3.149 -5.88,3.149l-7.097,0l-1.644,-8.82l2.369,0c1.281,0 2.135,-0.793 2.5,-2.289l4.019,-18.649l-7.888,0l0,-7.751l9.527,0l0.585,-2.293l-10.608,0l0,-2.51l0,-4.451l0,-4.444l6.727,0l-2.074,-3.094l12.394,0l2.085,3.094l8.956,0l-1.857,-3.094l12.099,0l1.938,3.094l9.037,0l2.076,-3.094l12.464,0l-2.072,3.094l4.156,0l0,11.405l-11.613,0l0,-2.51l-42.639,0l0,2.51l11.68,0l-0.567,2.293l43.425,0l0,7.751l-45.291,0l-0.713,2.579l43.355,0l0,6.744l-14.838,10.538l0.998,0.504c1.437,0.351 3.155,0.573 5.164,0.573l11.607,0l0,8.249l-17.907,0c-2.943,0 -5.878,-0.936 -8.966,-2.789zm-23.936,-5.17l10.114,0c1.36,0 2.572,-0.21 3.571,-0.512l-11.96,-6.804l-1.725,7.316zm2.651,-10.97l-0.786,3.082l18.273,0l2.156,1.133l5.519,-4.215l-25.162,0zm39.994,-37.162l-56.899,0l-1.434,-8.605l51.029,0c0.92,0 1.573,-0.214 1.852,-0.652c0.44,-0.496 0.582,-1.068 0.582,-1.791l0,-0.29l11.599,0l0,4.6c0,1.569 -0.571,3.081 -1.712,4.511c-1.357,1.441 -3.016,2.227 -5.017,2.227zm95.455,11.838l1.939,-5.026l11.607,0l-4.371,11.262c-0.362,1.079 -1.077,1.935 -1.719,2.654l3.291,0l0,35.934l-11.604,0l0,-33.42l-3.946,0l-1.649,-9.396l2.302,0c2.076,0 3.651,-0.654 4.15,-2.008z" fill="rgb(254, 254, 254)" fill-rule="evenodd"/>
  <path id="svg_15" d="m452.944,109.641c0,-1.88 -2.082,-2.894 -6.273,-2.894c-5.681,0.074 -8.638,2.172 -8.775,6.429c0.137,4.126 3.094,6.208 8.775,6.289c1.735,0 3.688,-0.148 5.919,-0.442c-0.081,0.078 0,0.078 0.354,0l0,-3.605l-6.049,0l0,-2.958l12.609,0l0,8.739c-2.238,0.429 -4.542,0.57 -6.914,0.57c-1.809,0.146 -4.113,0.231 -7.058,0.231c-9.584,-0.372 -14.479,-3.261 -14.694,-8.824c0.215,-5.712 5.11,-8.735 14.694,-9.176c9.787,0 14.612,1.88 14.465,5.641l-7.053,0zm-48.69,-2.315l-0.148,0.073l0,14.37l-6.274,0l0,-17.328l9.952,0l11.813,13.642l0.137,-0.058l0,-13.584l6.275,0l0,17.328l-9.585,0l-12.17,-14.443zm-19.375,10.757l-12.323,0l-2.304,3.686l-6.485,0l11.387,-17.328l7.922,0l10.951,17.328l-6.766,0l-2.382,-3.686zm-5.907,-10.322l-0.148,0l-4.535,7.436l8.924,0l-4.241,-7.436zm-25.719,6.427l-11.95,0l0,7.581l-6.64,0l0,-17.328l6.64,0l0,6.856l11.804,0l0,-6.856l6.703,0l0,17.328l-6.557,0l0,-7.581zm-31.47,-9.747l6.757,0l0,17.328l-6.757,0l0,-17.328zm-14.273,17.328l-6.625,0l0,-5.631l-10.582,-11.697l7.912,0l6.415,7.945l6.557,-7.945l6.772,0l-10.449,11.697l0,5.631zm-27.661,-17.328l6.777,0l0,17.328l-6.777,0l0,-17.328zm-12.751,13.642l-12.311,0l-2.304,3.686l-6.483,0l11.379,-17.328l7.922,0l10.951,17.328l-6.773,0l-2.381,-3.686zm-5.901,-10.322l-0.142,0l-4.541,7.436l8.935,0l-4.252,-7.436z" fill="rgb(254, 254, 254)" fill-rule="evenodd"/>
  <path id="svg_16" d="m481.96,44c-5.461,0 -9.96,-4.506 -9.96,-9.965c0,-5.533 4.499,-10.035 9.96,-10.035c5.523,0 10.04,4.502 10.04,10.035c0,5.459 -4.517,9.965 -10.04,9.965zm0,-18.431c-4.635,0 -8.393,3.754 -8.393,8.466c0,4.645 3.758,8.394 8.393,8.394c4.644,0 8.467,-3.749 8.467,-8.394c0,-4.712 -3.823,-8.466 -8.467,-8.466zm4.162,11.132c0.071,0.135 0.071,0.268 0.071,0.335c0.132,1.435 0.347,2.324 0.615,2.801l-2.73,0c-0.204,-1.027 -0.341,-2.043 -0.413,-3.136c-0.06,-1.029 -0.476,-1.509 -1.085,-1.509l-2.665,0l0,4.645l-2.527,0l0,-11.673l4.982,0c2.668,0.069 4.032,1.098 4.097,3.07c-0.065,1.501 -0.89,2.459 -2.452,2.801l0,0.064c1.36,0.07 2.044,0.888 2.107,2.602zm-4.089,-6.562l-2.118,0l0,3.082l2.118,0c1.156,0 1.775,-0.551 1.775,-1.637c0,-1.033 -0.619,-1.51 -1.775,-1.445z" fill="rgb(254, 254, 254)" fill-rule="evenodd"/>
 </g>
</svg>